<?xml version="1.0" encoding="UTF-8"?>
<svg width="200px" height="200px" viewBox="0 0 200 200" version="1.1" xmlns="http://www.w3.org/2000/svg" xmlns:xlink="http://www.w3.org/1999/xlink">
    <!-- Generator: Sketch 54.1 (76490) - https://sketchapp.com -->
    <title>ouachita-baptist</title>
    <desc>Created with Sketch.</desc>
    <g id="ouachita-baptist" stroke="none" stroke-width="1" fill="none" fill-rule="evenodd">
        <g id="ouachita-baptist_BGD">
            <g id="ouachita-baptist" transform="translate(2.000000, 40.000000)">
                <g id="g10" transform="translate(97.919998, 59.985068) scale(-1, 1) rotate(-180.000000) translate(-97.919998, -59.985068) translate(0.213333, 0.251736)">
                    <g id="g12" transform="translate(0.384000, 0.000000)">
                        <path d="M190.282662,72.1190382 C186.930769,74.5523181 178.569382,80.844798 174.950822,83.1035713 L158.201596,88.1399445 L149.279143,98.0556775 L148.50261,98.3069842 L138.946557,93.6486377 L139.17269,91.0481044 C141.228796,92.1459177 148.026876,94.2783976 148.026876,94.2783976 C148.026876,94.2783976 153.03509,89.8717844 154.914983,87.0382912 C157.886716,82.5553046 147.713276,81.372158 147.713276,81.372158 L143.863463,81.8884246 C144.118183,82.2835179 144.270076,82.7541313 144.270076,83.2610113 C144.270076,84.6515179 143.147516,85.7796245 141.765116,85.7796245 C140.382716,85.7796245 139.26101,84.6515179 139.26101,83.2610113 C139.26101,82.9917846 139.30325,82.7327979 139.380903,82.4891713 L138.321917,82.6316779 L114.704637,84.4821312 C114.52629,84.4458646 114.349224,84.4074646 114.17429,84.3673579 C107.643304,75.0075715 107.984637,64.5602117 118.597117,62.4857584 C125.21685,61.1912518 138.946557,66.2626117 138.946557,66.2626117 C138.946557,66.2626117 123.00629,55.3561586 113.274877,57.7629852 C104.116904,60.0302918 101.225811,68.5657583 103.192744,75.6872514 C101.137491,71.6821315 100.558077,66.9858117 101.408424,62.9427184 C102.709331,56.7509319 108.259411,50.9939187 125.642237,54.9316253 C127.36341,56.8196252 122.667517,37.6174924 144.895996,28.8043513 C151.694076,26.1090127 133.312423,31.0085112 127.36341,36.3588258 C121.416104,41.7099936 120.47573,47.6910921 120.47573,47.6910921 C120.47573,47.6910921 103.150931,42.7255456 96.0567443,57.4498119 C91.6275177,66.6419183 95.8557843,85.2684779 107.052371,91.3271444 C106.111571,92.8964243 105.536851,94.6474643 105.761277,96.4808509 C106.143571,99.5882642 109.205757,103.721811 109.205757,103.721811 C109.205757,103.721811 108.266664,93.6486377 116.718504,88.9271444 C125.171624,84.2056512 137.38325,86.0940778 140.200103,87.6676245 C143.210236,89.3499711 148.80853,83.8903446 148.80853,83.8903446 C148.80853,83.8903446 155.226876,83.8903446 149.59189,87.3531711 C146.569383,89.2108778 147.010556,91.2260244 140.513276,90.5011177 C139.98165,90.4413844 139.57333,90.4127977 139.271677,90.4098111 C139.256743,90.4098111 138.920103,90.4230377 138.920103,90.4230377 C138.920103,90.4230377 138.65173,90.7345044 138.64405,90.7434644 C137.668263,91.879251 135.782397,94.0842643 134.87829,95.222611 C133.850023,96.5141309 140.203516,99.2913042 142.51349,100.244477 L137.784317,101.774077 L129.555197,99.6296508 L131.121063,91.6023444 C131.121063,91.6023444 122.51093,98.6862909 122.199037,100.258984 C121.93749,101.568424 128.285863,103.531517 130.426877,104.153597 L125.085864,105.881171 L118.286077,102.462291 L120.788904,95.3796243 C120.788904,95.3796243 111.866877,101.203624 110.614611,102.777171 C109.558184,104.104104 115.290024,107.444477 117.114024,108.460371 L116.782504,108.567464 C112.660904,108.165544 107.102717,107.444477 100.709971,106.156797 C99.4850108,104.918184 98.2732775,103.322024 98.1166909,101.741651 C97.7250109,97.7843176 103.883517,93.333331 103.883517,93.333331 C103.883517,93.333331 92.3635177,92.9369577 84.5640512,96.6847976 L79.7768513,90.1862377 C84.6698645,85.1225579 93.4967443,84.2090646 91.360851,76.3357848 C88.1510378,64.5017584 86.2246378,51.7529587 95.0476776,33.8333432 C95.0015976,35.6928418 95.1641576,37.7454924 95.6825576,39.9179937 C96.8234642,44.6946122 100.540157,47.2439455 100.540157,47.2439455 C100.540157,47.2439455 96.8977042,41.1378336 100.019624,30.8471459 C101.759144,25.117482 104.760744,18.9746769 106.313384,15.9723516 C106.701651,15.4589863 107.099731,14.9406716 107.505064,14.418005 C107.046824,17.0065062 107.116797,20.0500048 108.173224,23.5221754 C110.776744,32.0691619 117.19509,35.2073378 117.19509,35.2073378 C117.19509,35.2073378 111.770451,27.56049 112.164264,21.4288208 C112.164264,21.4216528 112.165544,21.4123515 112.165971,21.4046715 C114.05525,23.7956687 117.500157,25.966506 123.293437,27.5456846 C142.02325,32.6484899 140.355836,17.3149862 140.355836,17.3149862 C140.355836,17.3149862 142.076583,16.5281703 143.33013,16.2133329 C144.040956,16.0349863 150.910716,17.5723516 156.479996,19.9915088 C163.367249,22.9806501 159.610023,27.702186 165.559036,27.8604793 C167.329276,27.9073273 167.706876,34.2191778 163.054076,34.3124898 C155.226876,34.4695031 142.547623,31.3233486 134.09493,41.3956683 C127.521703,49.2287988 135.816103,64.5316251 144.426663,66.7349317 C146.399143,67.240105 150.614183,65.0201584 155.645009,62.4482118 C152.752636,65.5295984 150.21909,69.0952516 150.21909,69.0952516 C150.21909,69.0952516 160.558076,60.1378118 176.830716,59.5729052 C178.474236,59.5161585 171.323302,57.9302386 165.711783,57.7804786 C170.131622,56.1041053 174.502396,55.1615986 178.081276,56.1898653 C182.464422,57.4498119 184.071675,58.1239452 185.126395,62.0130118 C186.535249,67.206825 177.768529,68.4659183 179.646289,70.3551982 C181.524902,72.2436249 185.281275,68.151465 185.908049,69.4105583 C186.383782,70.3658649 188.663889,71.8660249 190.282662,72.1190382 L190.282662,72.1190382 Z M175.116796,52.837972 C175.116796,52.837972 173.851729,52.923732 173.060262,53.0726387 C172.182609,53.2381853 170.852689,53.677652 170.852689,53.677652 C170.852689,53.677652 171.650129,51.7555187 171.942396,50.4644254 C172.263249,49.0521588 172.352422,46.7737588 172.352422,46.7737588 C172.352422,46.7737588 173.773222,48.3818655 174.424316,49.7506121 C175.304956,51.602772 175.116796,52.837972 175.116796,52.837972 Z M162.390183,37.2715084 C162.390183,37.2715084 163.902716,37.3243297 164.776103,36.9876471 C165.527463,36.6988364 166.501543,35.8550178 166.501543,35.8550178 C166.501543,35.8550178 167.280209,36.8311457 167.437222,38.8774817 C167.553276,40.3908257 167.123196,42.4976629 167.123196,42.4976629 C167.123196,42.4976629 165.914023,40.568319 164.932689,39.5071563 C164.036689,38.5370017 162.390183,37.2715084 162.390183,37.2715084 L162.390183,37.2715084 Z M191.784955,71.2294382 C191.992742,68.3135983 188.468902,57.7407986 181.212582,53.6716787 C180.243195,53.1293853 178.938876,52.8593053 177.380689,52.814932 C176.942502,51.638612 176.241062,49.9246921 175.488422,48.7692788 C174.176849,46.7579722 171.289169,44.2649589 171.289169,44.2649589 C171.289169,44.2649589 171.386022,48.2321055 170.252369,50.3551987 C169.460902,51.8374387 168.852476,53.1383453 168.417702,54.1363186 C166.890236,54.537812 165.301756,55.016532 163.679996,55.5596786 C160.067409,56.7718386 149.279143,62.9576518 146.774183,63.1150918 C140.476583,63.5110384 129.204903,52.2065054 137.38325,42.3389856 C142.55829,36.0946764 152.385703,37.1451724 159.357436,37.5718391 C160.253436,38.2629964 161.678503,39.3023137 163.524263,40.450175 C165.561596,41.7181856 167.450449,45.2044789 167.450449,45.2044789 C167.450449,45.2044789 168.710822,41.5953483 168.846076,39.1926604 C168.925862,37.7739937 168.663889,35.8719991 168.455249,34.6324898 C171.942396,29.6695033 169.622609,27.143338 167.072422,25.615018 C165.399036,24.6123514 163.332689,24.3413327 163.524263,23.2954874 C164.619089,17.3149862 146.576636,12.9613223 144.69845,12.3323304 C142.820263,11.7021864 136.44245,13.591509 136.44245,13.591509 C136.44245,13.591509 143.956903,26.5996793 127.36341,24.3971834 C110.629971,22.1754874 114.72597,7.46581315 115.74357,4.47065589 C122.085117,-4.19499936 67.3877316,28.5073486 80.7633046,71.8395715 C82.1713046,76.4036248 68.271785,84.0494912 68.271785,84.0494912 L74.5535981,98.4034109 C74.3675715,98.3283175 74.1823981,98.2549309 73.9967982,98.1789842 C67.5468783,91.482451 60.2914118,79.5140247 60.2914118,79.5140247 L72.7825048,70.7938116 C72.7825048,70.7938116 70.7007982,69.0483183 72.7825048,50.5591454 C75.1999981,29.0923513 94.467411,7.47481581 94.467411,7.47481581 C94.467411,7.47481581 69.1391983,26.4883193 64.4552517,43.5810122 C61.4143985,54.6803186 62.7199984,66.9550917 62.7199984,66.9550917 L48.4940788,74.2818115 L52.8524787,90.1858111 L40.5133217,68.7001583 L54.6218653,62.6559984 C54.6218653,62.6559984 52.1292787,48.1727988 59.2499185,35.2073378 C65.4207984,23.9773434 81.9767446,8.34568512 81.9767446,8.34568512 C81.9767446,8.34568512 58.8991985,19.0216529 50.2289054,31.7196792 C44.8324255,39.6233377 40.8605003,54.397012 40.8605003,54.397012 L27.180842,62.1704518 L29.0591566,77.5957314 L19.3480102,57.5364252 L33.2983458,49.5714121 C33.2983458,49.5714121 39.2383137,30.9145166 47.5302388,22.1940048 C53.2134387,16.2179836 64.749225,9.91748242 64.749225,9.91748242 C64.749225,9.91748242 49.7510388,12.8188157 41.8941856,18.1013329 C33.3191672,23.8698234 24.6758394,38.247679 24.6758394,38.247679 L3.11466659,47.0493855 C3.10966606,47.2315722 3.42300151,48.4398921 3.44133538,48.5004788 C13.3221543,81.013758 45.5692789,99.1748242 76.3558381,106.847144 C74.7784515,111.487144 74.2459715,116.207357 75.0813848,115.997864 C75.9057048,115.790504 87.9334378,112.579411 96.0499176,110.411091 C104.283304,111.341651 113.234344,111.496531 119.85109,110.960637 C119.85109,110.960637 150.21909,101.204051 151.47093,99.9445308 C152.721916,98.6850109 156.948476,91.917651 158.828369,90.0296511 C159.645009,89.2061844 167.749969,87.5106111 175.889916,85.1490112 C179.752529,82.8654913 188.663462,75.6420248 191.880955,72.3635182 C192.028582,72.2892782 191.924902,71.4969582 191.784955,71.2294382 Z M169.629436,64.3741851 C173.894396,63.3117851 180.586662,64.689065 178.708049,64.689065 C176.830716,64.689065 151.704743,73.7386648 151.704743,73.7386648 C151.704743,73.7386648 161.410129,66.4204783 169.629436,64.3741851 L169.629436,64.3741851 Z M156.948476,79.4056513 C165.312423,78.1431447 178.944422,66.734505 177.925116,67.994025 C167.383462,81.0402113 155.383889,79.6411713 156.948476,79.4056513 Z M136.756903,74.4477848 L149.904636,68.7812249 L138.007463,70.6700782 C138.007463,70.6700782 127.993597,66.4716783 124.48085,66.6069317 C106.996051,67.2802117 120.317437,78.206718 128.99157,78.817278 C132.16853,79.0408514 122.05269,77.0726381 122.35349,74.1324781 C122.837757,69.4318916 136.756903,74.4477848 136.756903,74.4477848 L136.756903,74.4477848 Z" id="path14" fill="#4D2587"></path>
                        <path d="M190.282662,72.1190382 C186.930769,74.5523181 178.569382,80.844798 174.950822,83.1035713 L158.201596,88.1399445 L149.279143,98.0556775 L148.50261,98.3069842 L138.946557,93.6486377 L139.17269,91.0481044 C141.228796,92.1459177 148.026876,94.2783976 148.026876,94.2783976 C148.026876,94.2783976 153.03509,89.8717844 154.914983,87.0382912 C157.886716,82.5553046 147.713276,81.372158 147.713276,81.372158 L143.863463,81.8884246 C144.118183,82.2835179 144.270076,82.7541313 144.270076,83.2610113 C144.270076,84.6515179 143.147516,85.7796245 141.765116,85.7796245 C140.382716,85.7796245 139.26101,84.6515179 139.26101,83.2610113 C139.26101,82.9917846 139.30325,82.7327979 139.380903,82.4891713 L138.321917,82.6316779 L114.704637,84.4821312 C114.52629,84.4458646 114.349224,84.4074646 114.17429,84.3673579 C107.643304,75.0075715 107.984637,64.5602117 118.597117,62.4857584 C125.21685,61.1912518 138.946557,66.2626117 138.946557,66.2626117 C138.946557,66.2626117 123.00629,55.3561586 113.274877,57.7629852 C104.116904,60.0302918 101.225811,68.5657583 103.192744,75.6872514 C101.137491,71.6821315 100.558077,66.9858117 101.408424,62.9427184 C102.709331,56.7509319 108.259411,50.9939187 125.642237,54.9316253 C127.36341,56.8196252 122.667517,37.6174924 144.895996,28.8043513 C151.694076,26.1090127 133.312423,31.0085112 127.36341,36.3588258 C121.416104,41.7099936 120.47573,47.6910921 120.47573,47.6910921 C120.47573,47.6910921 103.150931,42.7255456 96.0567443,57.4498119 C91.6275177,66.6419183 95.8557843,85.2684779 107.052371,91.3271444 C106.111571,92.8964243 105.536851,94.6474643 105.761277,96.4808509 C106.143571,99.5882642 109.205757,103.721811 109.205757,103.721811 C109.205757,103.721811 108.266664,93.6486377 116.718504,88.9271444 C125.171624,84.2056512 137.38325,86.0940778 140.200103,87.6676245 C143.210236,89.3499711 148.80853,83.8903446 148.80853,83.8903446 C148.80853,83.8903446 155.226876,83.8903446 149.59189,87.3531711 C146.569383,89.2108778 147.010556,91.2260244 140.513276,90.5011177 C139.98165,90.4413844 139.57333,90.4127977 139.271677,90.4098111 C139.256743,90.4098111 138.920103,90.4230377 138.920103,90.4230377 C138.920103,90.4230377 138.65173,90.7345044 138.64405,90.7434644 C137.668263,91.879251 135.782397,94.0842643 134.87829,95.222611 C133.850023,96.5141309 140.203516,99.2913042 142.51349,100.244477 L137.784317,101.774077 L129.555197,99.6296508 L131.121063,91.6023444 C131.121063,91.6023444 122.51093,98.6862909 122.199037,100.258984 C121.93749,101.568424 128.285863,103.531517 130.426877,104.153597 L125.085864,105.881171 L118.286077,102.462291 L120.788904,95.3796243 C120.788904,95.3796243 111.866877,101.203624 110.614611,102.777171 C109.558184,104.104104 115.290024,107.444477 117.114024,108.460371 L116.782504,108.567464 C112.660904,108.165544 107.102717,107.444477 100.709971,106.156797 C99.4850108,104.918184 98.2732775,103.322024 98.1166909,101.741651 C97.7250109,97.7843176 103.883517,93.333331 103.883517,93.333331 C103.883517,93.333331 92.3635177,92.9369577 84.5640512,96.6847976 L79.7768513,90.1862377 C84.6698645,85.1225579 93.4967443,84.2090646 91.360851,76.3357848 C88.1510378,64.5017584 86.2246378,51.7529587 95.0476776,33.8333432 C95.0015976,35.6928418 95.1641576,37.7454924 95.6825576,39.9179937 C96.8234642,44.6946122 100.540157,47.2439455 100.540157,47.2439455 C100.540157,47.2439455 96.8977042,41.1378336 100.019624,30.8471459 C101.759144,25.117482 104.760744,18.9746769 106.313384,15.9723516 C106.701651,15.4589863 107.099731,14.9406716 107.505064,14.418005 C107.046824,17.0065062 107.116797,20.0500048 108.173224,23.5221754 C110.776744,32.0691619 117.19509,35.2073378 117.19509,35.2073378 C117.19509,35.2073378 111.770451,27.56049 112.164264,21.4288208 C112.164264,21.4216528 112.165544,21.4123515 112.165971,21.4046715 C114.05525,23.7956687 117.500157,25.966506 123.293437,27.5456846 C142.02325,32.6484899 140.355836,17.3149862 140.355836,17.3149862 C140.355836,17.3149862 142.076583,16.5281703 143.33013,16.2133329 C144.040956,16.0349863 150.910716,17.5723516 156.479996,19.9915088 C163.367249,22.9806501 159.610023,27.702186 165.559036,27.8604793 C167.329276,27.9073273 167.706876,34.2191778 163.054076,34.3124898 C155.226876,34.4695031 142.547623,31.3233486 134.09493,41.3956683 C127.521703,49.2287988 135.816103,64.5316251 144.426663,66.7349317 C146.399143,67.240105 150.614183,65.0201584 155.645009,62.4482118 C152.752636,65.5295984 150.21909,69.0952516 150.21909,69.0952516 C150.21909,69.0952516 160.558076,60.1378118 176.830716,59.5729052 C178.474236,59.5161585 171.323302,57.9302386 165.711783,57.7804786 C170.131622,56.1041053 174.502396,55.1615986 178.081276,56.1898653 C182.464422,57.4498119 184.071675,58.1239452 185.126395,62.0130118 C186.535249,67.206825 177.768529,68.4659183 179.646289,70.3551982 C181.524902,72.2436249 185.281275,68.151465 185.908049,69.4105583 C186.383782,70.3658649 188.663889,71.8660249 190.282662,72.1190382 L190.282662,72.1190382 Z M175.116796,52.837972 C175.116796,52.837972 173.851729,52.923732 173.060262,53.0726387 C172.182609,53.2381853 170.852689,53.677652 170.852689,53.677652 C170.852689,53.677652 171.650129,51.7555187 171.942396,50.4644254 C172.263249,49.0521588 172.352422,46.7737588 172.352422,46.7737588 C172.352422,46.7737588 173.773222,48.3818655 174.424316,49.7506121 C175.304956,51.602772 175.116796,52.837972 175.116796,52.837972 Z M162.390183,37.2715084 C162.390183,37.2715084 163.902716,37.3243297 164.776103,36.9876471 C165.527463,36.6988364 166.501543,35.8550178 166.501543,35.8550178 C166.501543,35.8550178 167.280209,36.8311457 167.437222,38.8774817 C167.553276,40.3908257 167.123196,42.4976629 167.123196,42.4976629 C167.123196,42.4976629 165.914023,40.568319 164.932689,39.5071563 C164.036689,38.5370017 162.390183,37.2715084 162.390183,37.2715084 L162.390183,37.2715084 Z M191.784955,71.2294382 C191.992742,68.3135983 188.468902,57.7407986 181.212582,53.6716787 C180.243195,53.1293853 178.938876,52.8593053 177.380689,52.814932 C176.942502,51.638612 176.241062,49.9246921 175.488422,48.7692788 C174.176849,46.7579722 171.289169,44.2649589 171.289169,44.2649589 C171.289169,44.2649589 171.386022,48.2321055 170.252369,50.3551987 C169.460902,51.8374387 168.852476,53.1383453 168.417702,54.1363186 C166.890236,54.537812 165.301756,55.016532 163.679996,55.5596786 C160.067409,56.7718386 149.279143,62.9576518 146.774183,63.1150918 C140.476583,63.5110384 129.204903,52.2065054 137.38325,42.3389856 C142.55829,36.0946764 152.385703,37.1451724 159.357436,37.5718391 C160.253436,38.2629964 161.678503,39.3023137 163.524263,40.450175 C165.561596,41.7181856 167.450449,45.2044789 167.450449,45.2044789 C167.450449,45.2044789 168.710822,41.5953483 168.846076,39.1926604 C168.925862,37.7739937 168.663889,35.8719991 168.455249,34.6324898 C171.942396,29.6695033 169.622609,27.143338 167.072422,25.615018 C165.399036,24.6123514 163.332689,24.3413327 163.524263,23.2954874 C164.619089,17.3149862 146.576636,12.9613223 144.69845,12.3323304 C142.820263,11.7021864 136.44245,13.591509 136.44245,13.591509 C136.44245,13.591509 143.956903,26.5996793 127.36341,24.3971834 C110.629971,22.1754874 114.72597,7.46581315 115.74357,4.47065589 C122.085117,-4.19499936 67.3877316,28.5073486 80.7633046,71.8395715 C82.1713046,76.4036248 68.271785,84.0494912 68.271785,84.0494912 L74.5535981,98.4034109 C74.3675715,98.3283175 74.1823981,98.2549309 73.9967982,98.1789842 C67.5468783,91.482451 60.2914118,79.5140247 60.2914118,79.5140247 L72.7825048,70.7938116 C72.7825048,70.7938116 70.7007982,69.0483183 72.7825048,50.5591454 C75.1999981,29.0923513 94.467411,7.47481581 94.467411,7.47481581 C94.467411,7.47481581 69.1391983,26.4883193 64.4552517,43.5810122 C61.4143985,54.6803186 62.7199984,66.9550917 62.7199984,66.9550917 L48.4940788,74.2818115 L52.8524787,90.1858111 L40.5133217,68.7001583 L54.6218653,62.6559984 C54.6218653,62.6559984 52.1292787,48.1727988 59.2499185,35.2073378 C65.4207984,23.9773434 81.9767446,8.34568512 81.9767446,8.34568512 C81.9767446,8.34568512 58.8991985,19.0216529 50.2289054,31.7196792 C44.8324255,39.6233377 40.8605003,54.397012 40.8605003,54.397012 L27.180842,62.1704518 L29.0591566,77.5957314 L19.3480102,57.5364252 L33.2983458,49.5714121 C33.2983458,49.5714121 39.2383137,30.9145166 47.5302388,22.1940048 C53.2134387,16.2179836 64.749225,9.91748242 64.749225,9.91748242 C64.749225,9.91748242 49.7510388,12.8188157 41.8941856,18.1013329 C33.3191672,23.8698234 24.6758394,38.247679 24.6758394,38.247679 L3.11466659,47.0493855 C3.10966606,47.2315722 3.42300151,48.4398921 3.44133538,48.5004788 C13.3221543,81.013758 45.5692789,99.1748242 76.3558381,106.847144 C74.7784515,111.487144 74.2459715,116.207357 75.0813848,115.997864 C75.9057048,115.790504 87.9334378,112.579411 96.0499176,110.411091 C104.283304,111.341651 113.234344,111.496531 119.85109,110.960637 C119.85109,110.960637 150.21909,101.204051 151.47093,99.9445308 C152.721916,98.6850109 156.948476,91.917651 158.828369,90.0296511 C159.645009,89.2061844 167.749969,87.5106111 175.889916,85.1490112 C179.752529,82.8654913 188.663462,75.6420248 191.880955,72.3635182 C192.028582,72.2892782 191.924902,71.4969582 191.784955,71.2294382 Z M169.629436,64.3741851 C173.894396,63.3117851 180.586662,64.689065 178.708049,64.689065 C176.830716,64.689065 151.704743,73.7386648 151.704743,73.7386648 C151.704743,73.7386648 161.410129,66.4204783 169.629436,64.3741851 L169.629436,64.3741851 Z M156.948476,79.4056513 C165.312423,78.1431447 178.944422,66.734505 177.925116,67.994025 C167.383462,81.0402113 155.383889,79.6411713 156.948476,79.4056513 Z M136.756903,74.4477848 L149.904636,68.7812249 L138.007463,70.6700782 C138.007463,70.6700782 127.993597,66.4716783 124.48085,66.6069317 C106.996051,67.2802117 120.317437,78.206718 128.99157,78.817278 C132.16853,79.0408514 122.05269,77.0726381 122.35349,74.1324781 C122.837757,69.4318916 136.756903,74.4477848 136.756903,74.4477848 L136.756903,74.4477848 Z" id="path16" fill="#4D2587"></path>
                        <path d="M78.0151447,22.4290128 C78.6845847,13.0048423 81.9767446,8.34568512 81.9767446,8.34568512 C81.9767446,8.34568512 65.4207984,23.9773434 59.2499185,35.2073378 C52.1292787,48.1727988 54.6218653,62.6559984 54.6218653,62.6559984 L40.5133217,68.7001583 L52.8524787,90.1858111 L48.4940788,74.2818115 L62.7199984,66.9550917 C62.7199984,66.9550917 61.4143985,54.6803186 64.4552517,43.5810122 C66.4379717,36.3451724 72.1203182,28.7654819 78.0151447,22.4290128 Z M64.749225,9.91748242 C64.749225,9.91748242 53.2134387,16.2179836 47.5302388,22.1940048 C39.2383137,30.9145166 33.2983458,49.5714121 33.2983458,49.5714121 L19.3480102,57.5364252 L29.0591566,77.5957314 L27.180842,62.1704518 L40.8605003,54.397012 C40.8605003,54.397012 44.8324255,39.6233377 50.2289054,31.7196792 C52.7462387,28.033322 56.4787186,24.5171621 60.5081585,21.3833381 C62.3048518,12.1148157 64.749225,9.91748242 64.749225,9.91748242 Z M94.467411,7.47481581 C94.467411,7.47481581 75.1999981,29.0923513 72.7825048,50.5591454 C70.7007982,69.0483183 72.7825048,70.7938116 72.7825048,70.7938116 L60.2914118,79.5140247 C60.2914118,79.5140247 66.8142917,90.2715711 72.9890115,97.0948242 L73.0478915,97.1071976 C73.3798382,97.4728509 73.7096515,97.8303976 74.0377581,98.1708775 C74.2054381,98.2395709 74.3735448,98.3057042 74.5403715,98.3735442 L68.271785,84.0494912 C68.271785,84.0494912 82.1713046,76.4036248 80.7633046,71.8395715 C74.5454915,51.697492 83.0374379,33.8521592 93.2697577,21.3905061 C92.2487444,12.0063144 94.467411,7.47481581 94.467411,7.47481581 Z M138.007463,70.6700782 C138.007463,70.6700782 127.993597,66.4716783 124.48085,66.6069317 C106.996051,67.2802117 120.317437,78.206718 128.99157,78.817278 C132.16853,79.0408514 122.05269,77.0726381 122.35349,74.1324781 C122.837757,69.4318916 136.756903,74.4477848 136.756903,74.4477848 L149.904636,68.7812249 L138.007463,70.6700782 Z M178.708049,64.689065 C180.586662,64.689065 173.894396,63.3117851 169.629436,64.3741851 C161.410129,66.4204783 151.704743,73.7386648 151.704743,73.7386648 C151.704743,73.7386648 176.830716,64.689065 178.708049,64.689065 Z M177.925116,67.994025 C178.944422,66.734505 165.312423,78.1431447 156.948476,79.4056513 C155.383889,79.6411713 167.383462,81.0402113 177.925116,67.994025 Z M95.0476776,33.8333432 C95.0015976,35.6928418 95.1641576,37.7454924 95.6825576,39.9179937 C96.8234642,44.6946122 100.540157,47.2439455 100.540157,47.2439455 C100.540157,47.2439455 96.8977042,41.1378336 100.019624,30.8471459 C101.759144,25.117482 104.760744,18.9746769 106.313384,15.9723516 C106.701651,15.4589863 107.099731,14.9406716 107.505064,14.418005 C107.046824,17.0065062 107.116797,20.0500048 108.173224,23.5221754 C110.776744,32.0691619 117.19509,35.2073378 117.19509,35.2073378 C117.19509,35.2073378 111.770451,27.56049 112.164264,21.4288208 C112.164264,21.4216528 112.165544,21.4123515 112.165971,21.4046715 C114.05525,23.7956687 117.500157,25.966506 123.293437,27.5456846 C142.02325,32.6484899 140.355836,17.3149862 140.355836,17.3149862 C140.355836,17.3149862 142.076583,16.5281703 143.33013,16.2133329 C144.040956,16.0349863 150.910716,17.5723516 156.479996,19.9915088 C163.367249,22.9806501 159.610023,27.702186 165.559036,27.8604793 C167.329276,27.9073273 167.706876,34.2191778 163.054076,34.3124898 C155.226876,34.4695031 142.547623,31.3233486 134.09493,41.3956683 C127.521703,49.2287988 135.816103,64.5316251 144.426663,66.7349317 C146.399143,67.240105 150.614183,65.0201584 155.645009,62.4482118 C152.752636,65.5295984 150.21909,69.0952516 150.21909,69.0952516 C150.21909,69.0952516 160.558076,60.1378118 176.830716,59.5729052 C178.474236,59.5161585 171.323302,57.9302386 165.711783,57.7804786 C170.131622,56.1041053 174.502396,55.1615986 178.081276,56.1898653 C182.464422,57.4498119 184.071675,58.1239452 185.126395,62.0130118 C186.535249,67.206825 177.768529,68.4659183 179.646289,70.3551982 C181.524902,72.2436249 185.281275,68.151465 185.908049,69.4105583 C186.383782,70.3658649 188.663889,71.8660249 190.282662,72.1190382 C186.930769,74.5523181 178.569382,80.844798 174.950822,83.1035713 L158.201596,88.1399445 L149.279143,98.0556775 L148.50261,98.3069842 L138.946557,93.6486377 L139.17269,91.0481044 C141.228796,92.1459177 148.026876,94.2783976 148.026876,94.2783976 C148.026876,94.2783976 153.03509,89.8717844 154.914983,87.0382912 C157.886716,82.5553046 147.713276,81.372158 147.713276,81.372158 L143.863463,81.8884246 C144.118183,82.2835179 144.270076,82.7541313 144.270076,83.2610113 C144.270076,84.6515179 143.147516,85.7796245 141.765116,85.7796245 C140.382716,85.7796245 139.26101,84.6515179 139.26101,83.2610113 C139.26101,82.9917846 139.30325,82.7327979 139.380903,82.4891713 L138.321917,82.6316779 L114.704637,84.4821312 C114.52629,84.4458646 114.349224,84.4074646 114.17429,84.3673579 C107.643304,75.0075715 107.984637,64.5602117 118.597117,62.4857584 C125.21685,61.1912518 138.946557,66.2626117 138.946557,66.2626117 C138.946557,66.2626117 123.00629,55.3561586 113.274877,57.7629852 C104.116904,60.0302918 101.225811,68.5657583 103.192744,75.6872514 C101.137491,71.6821315 100.558077,66.9858117 101.408424,62.9427184 C102.709331,56.7509319 108.259411,50.9939187 125.642237,54.9316253 C127.36341,56.8196252 122.667517,37.6174924 144.895996,28.8043513 C151.694076,26.1090127 133.312423,31.0085112 127.36341,36.3588258 C121.416104,41.7099936 120.47573,47.6910921 120.47573,47.6910921 C120.47573,47.6910921 103.150931,42.7255456 96.0567443,57.4498119 C91.6275177,66.6419183 95.8557843,85.2684779 107.052371,91.3271444 C106.111571,92.8964243 105.536851,94.6474643 105.761277,96.4808509 C106.143571,99.5882642 109.205757,103.721811 109.205757,103.721811 C109.205757,103.721811 108.266664,93.6486377 116.718504,88.9271444 C125.171624,84.2056512 137.38325,86.0940778 140.200103,87.6676245 C143.210236,89.3499711 148.80853,83.8903446 148.80853,83.8903446 C148.80853,83.8903446 155.226876,83.8903446 149.59189,87.3531711 C146.569383,89.2108778 147.010556,91.2260244 140.513276,90.5011177 C139.98165,90.4413844 139.57333,90.4127977 139.271677,90.4098111 C139.256743,90.4098111 138.920103,90.4230377 138.920103,90.4230377 C138.920103,90.4230377 138.65173,90.7345044 138.64405,90.7434644 C137.668263,91.879251 135.782397,94.0842643 134.87829,95.222611 C133.850023,96.5141309 140.203516,99.2913042 142.51349,100.244477 L137.784317,101.774077 L129.555197,99.6296508 L131.121063,91.6023444 C131.121063,91.6023444 122.51093,98.6862909 122.199037,100.258984 C121.93749,101.568424 128.285863,103.531517 130.426877,104.153597 L125.085864,105.881171 L118.286077,102.462291 L120.788904,95.3796243 C120.788904,95.3796243 111.866877,101.203624 110.614611,102.777171 C109.558184,104.104104 115.290024,107.444477 117.114024,108.460371 L116.782504,108.567464 C112.660904,108.165544 107.102717,107.444477 100.709971,106.156797 C99.4850108,104.918184 98.2732775,103.322024 98.1166909,101.741651 C97.7250109,97.7843176 103.883517,93.333331 103.883517,93.333331 C103.883517,93.333331 92.3635177,92.9369577 84.5640512,96.6847976 L79.7768513,90.1862377 C84.6698645,85.1225579 93.4967443,84.2090646 91.360851,76.3357848 C88.1510378,64.5017584 86.2246378,51.7529587 95.0476776,33.8333432 L95.0476776,33.8333432 Z" id="path18" fill="#FBC01C" fill-rule="nonzero"></path>
                        <path d="M169.973756,19.2213329 L171.121489,19.2213329 L171.121489,15.7133223 L171.909542,15.7133223 L171.909542,19.2213329 L173.075622,19.2213329 L173.075622,19.9330128 L169.973756,19.9330128 L169.973756,19.2213329 Z M191.784955,71.2294382 C191.924902,71.4969582 192.028582,72.2892782 191.880955,72.3635182 C188.663462,75.6420248 179.752529,82.8654913 175.889916,85.1490112 C167.749969,87.5106111 159.645009,89.2061844 158.828369,90.0296511 C156.948476,91.917651 152.721916,98.6850109 151.47093,99.9445308 C150.21909,101.204051 119.85109,110.960637 119.85109,110.960637 C113.234344,111.496531 104.283304,111.341651 96.0499176,110.411091 C87.9334378,112.579411 75.9057048,115.790504 75.0813848,115.997864 C74.2459715,116.207357 74.7784515,111.487144 76.3558381,106.847144 C45.5692789,99.1748242 13.3221543,81.013758 3.44133538,48.5004788 C3.42300151,48.4398921 3.10966606,47.2315722 3.11466659,47.0493855 L24.6758394,38.247679 C24.6758394,38.247679 33.3191672,23.8698234 41.8941856,18.1013329 C49.7510388,12.8188157 64.749225,9.91748242 64.749225,9.91748242 C64.749225,9.91748242 62.3048518,12.1148157 60.5081585,21.3833381 C70.3556249,13.722837 81.9767446,8.34568512 81.9767446,8.34568512 C81.9767446,8.34568512 78.6845847,13.0048423 78.0151447,22.4290128 C78.009598,22.4353274 78.0036247,22.4413434 77.9980781,22.4473168 C86.0326378,13.8070183 94.467411,7.47481581 94.467411,7.47481581 C94.467411,7.47481581 92.2487444,12.0063144 93.2697577,21.3905061 C93.262931,21.3989968 93.2561043,21.4071461 93.2497043,21.4156795 C105.033811,7.05233049 119.13941,-0.169833382 115.74357,4.47065589 C114.72597,7.46581315 110.629971,22.1754874 127.36341,24.3971834 C143.956903,26.5996793 136.44245,13.591509 136.44245,13.591509 C136.44245,13.591509 142.820263,11.7021864 144.69845,12.3323304 C146.576636,12.9613223 164.619089,17.3149862 163.524263,23.2954874 C163.332689,24.3413327 165.399036,24.6123514 167.072422,25.615018 C169.622609,27.143338 171.942396,29.6695033 168.455249,34.6324898 C168.663889,35.8719991 168.925862,37.7739937 168.846076,39.1926604 C168.710822,41.5953483 167.450449,45.2044789 167.450449,45.2044789 C167.450449,45.2044789 165.561596,41.7181856 163.524263,40.450175 C161.678503,39.3023137 160.253436,38.2629964 159.357436,37.5718391 C152.385703,37.1451724 142.55829,36.0946764 137.38325,42.3389856 C129.204903,52.2065054 140.476583,63.5110384 146.774183,63.1150918 C149.279143,62.9576518 160.067409,56.7718386 163.679996,55.5596786 C165.301756,55.016532 166.890236,54.537812 168.417702,54.1363186 C168.852476,53.1383453 169.460902,51.8374387 170.252369,50.3551987 C171.386022,48.2321055 171.289169,44.2649589 171.289169,44.2649589 C171.289169,44.2649589 174.176849,46.7579722 175.488422,48.7692788 C176.241062,49.9246921 176.942502,51.638612 177.380689,52.814932 C178.938876,52.8593053 180.243195,53.1293853 181.212582,53.6716787 C188.468902,57.7407986 191.992742,68.3135983 191.784955,71.2294382 L191.784955,71.2294382 Z M194.856102,70.7575449 C194.681168,66.3675717 190.743035,55.4939719 182.714875,50.9922121 C181.803089,50.4819187 180.752635,50.1307721 179.534929,49.9323721 C179.039996,48.7876254 178.547196,47.8370121 178.062502,47.0933322 C176.556369,44.7829322 173.626022,42.2238283 173.296636,41.9396683 C172.831569,41.538175 172.268369,41.2939936 171.683409,41.218175 C171.796476,40.5858123 171.880102,39.9540043 171.912956,39.3646497 C171.974396,38.283519 171.892049,36.9263351 171.669329,35.3211725 C173.087996,32.9425058 173.581649,30.6846712 173.137916,28.5940046 C172.659196,26.338986 171.191889,24.5021861 168.651516,22.9798394 C167.933009,22.5488208 167.211942,22.2413221 166.615889,21.9930021 C165.928529,16.0174929 156.285436,12.4424957 146.691836,9.71566909 C146.20885,9.57815443 145.85557,9.47967976 145.674236,9.41917843 C145.096956,9.2258131 144.43477,9.13151977 143.649276,9.13151977 C140.76501,9.13151977 136.093437,10.4904957 135.569917,10.6458451 C134.667517,10.9133224 133.93749,11.578837 133.58933,12.4531624 C133.240317,13.327317 133.31157,14.3130023 133.78261,15.1283196 C134.641063,16.6391463 135.493543,19.3364902 134.847143,20.4471462 C134.435837,21.1541755 132.93141,21.5764901 130.822397,21.5764901 C129.91701,21.5764901 128.88917,21.5014821 127.767463,21.3521488 C123.45301,20.7791781 120.494077,19.2473169 118.97429,16.7991462 C116.61269,12.9958397 117.985704,7.58651714 118.530984,5.83167985 C119.430824,4.40482122 119.576744,3.07066872 118.96277,1.86066769 C118.371837,0.695500783 117.19125,0 115.805864,0 C112.450984,0 104.067411,5.58468253 96.2239976,13.5354877 C96.5354643,10.3838291 97.2326376,8.81399445 97.2437309,8.78882111 C97.8683709,7.51398381 97.5287442,5.99466652 96.4343443,5.08885321 C95.8728509,4.62468255 95.1837843,4.39381322 94.4921576,4.39381322 C93.8355177,4.39381322 93.1763177,4.60249588 92.622931,5.01798387 C92.3788777,5.2014932 88.2722111,8.29917846 83.0681579,13.0931623 C83.8190912,11.1171837 84.4872512,10.1163517 84.5004779,10.0966824 C85.3034645,8.96051178 85.2347712,7.43718381 84.3447446,6.36799984 C83.7486912,5.65333319 82.8778646,5.27065587 81.9882646,5.27065587 C81.548798,5.27065587 81.104638,5.36401053 80.6869313,5.55733319 C80.316158,5.72885319 73.5539182,8.87901844 65.9362117,13.7963517 C66.3935983,12.8139943 66.7413317,12.3199997 66.870185,12.151509 C67.9829316,11.3015037 68.2572783,9.89132775 67.695785,8.59400512 C67.210665,7.47217048 66.027945,6.83899716 64.8166384,6.83899716 C64.5990384,6.83899716 64.3814384,6.8591785 64.1655451,6.90047983 C63.5285317,7.02382916 48.4595188,9.98485308 40.1800097,15.5525116 C32.3121485,20.8448421 24.6758394,32.4603299 22.5883301,35.7815031 L1.95333542,44.2052256 C0.823833579,44.6664522 0.0738333422,45.7523189 0.0433333323,46.9721588 C0.0238333434,47.7405855 0.417166496,49.1076254 0.495833588,49.3738654 C5.27466653,65.0995184 15.284181,78.584318 30.2516472,89.4732778 C41.886335,97.9374909 56.4433053,104.664317 72.5145582,109.021864 C72.2397849,110.113704 72.0170649,111.191891 71.8596249,112.203091 C71.3514649,115.46581 71.6940782,116.758184 72.3656515,117.69557 C72.9851715,118.560424 73.9810115,119.07669 75.0297581,119.07669 C75.2981315,119.07669 75.5669314,119.04341 75.8289048,118.977704 C76.4612248,118.818557 83.3420779,116.985597 96.2854376,113.52789 C101.189544,114.059517 106.431997,114.339837 111.486291,114.339837 C114.603517,114.339837 117.50101,114.23317 120.098984,114.022824 C120.33365,114.003624 120.565757,113.957544 120.79061,113.885864 C151.870716,103.900157 153.028263,102.735357 153.649916,102.109864 C154.367569,101.387517 155.338663,100.000851 156.994556,97.6127976 C158.210129,95.8591976 159.834023,93.516371 160.753489,92.4689044 C161.786023,92.067411 164.806823,91.2870377 167.497809,90.5919977 C170.309116,89.8658111 173.495462,89.0423444 176.745809,88.0998378 C176.993702,88.0277311 177.231356,87.9249045 177.453222,87.7934911 C181.539409,85.3781312 190.552742,78.0642114 193.969062,74.6210115 C194.373968,74.2510915 194.678182,73.7774915 194.853542,73.2339182 C195.118502,72.4095982 195.042128,71.4884249 194.856102,70.7575449 Z M173.060262,53.0726387 C172.182609,53.2381853 170.852689,53.677652 170.852689,53.677652 C170.852689,53.677652 171.650129,51.7555187 171.942396,50.4644254 C172.263249,49.0521588 172.352422,46.7737588 172.352422,46.7737588 C172.352422,46.7737588 173.773222,48.3818655 174.424316,49.7506121 C175.304956,51.602772 175.116796,52.837972 175.116796,52.837972 C175.116796,52.837972 173.851729,52.923732 173.060262,53.0726387 L173.060262,53.0726387 Z M175.924476,16.8013222 L175.099729,19.9330128 L173.951996,19.9330128 L173.951996,15.7133223 L174.722982,15.7133223 L174.645329,19.1799889 L175.559676,15.7133223 L176.271356,15.7133223 L177.185276,19.1799889 L177.108049,15.7133223 L177.878609,15.7133223 L177.878609,19.9330128 L176.737276,19.9330128 L175.924476,16.8013222 Z M162.390183,37.2715084 C162.390183,37.2715084 164.036689,38.5370017 164.932689,39.5071563 C165.914023,40.568319 167.123196,42.4976629 167.123196,42.4976629 C167.123196,42.4976629 167.553276,40.3908257 167.437222,38.8774817 C167.280209,36.8311457 166.501543,35.8550178 166.501543,35.8550178 C166.501543,35.8550178 165.527463,36.6988364 164.776103,36.9876471 C163.902716,37.3243297 162.390183,37.2715084 162.390183,37.2715084 L162.390183,37.2715084 Z" id="path20" fill="#FFFFFF" fill-rule="nonzero"></path>
                    </g>
                </g>
            </g>
        </g>
    </g>
</svg>