<svg xmlns="http://www.w3.org/2000/svg" width="3.55351in" height="1.54631in" viewBox="0 0 255.85249 111.334">
  <g>
    <path d="M104.71629,55.291H90.27679l-1.705,6.021H90.811L83.68209,72.6187l-.999-17.3277H68.03459l-1.664,5.9937,2.23441.0273L59.039,75.8257l-7.87741-.0312a4.33709,4.33709,0,0,1-4.0073-4.7051c0-3.9473,3.7539-9.6699,7.5693-9.6699l1.5986.0371c-.2685.9707-.832,2.9902-.832,2.9902h7.0137l2.521-9.1558-10.8057-.04a15.11847,15.11847,0,0,0-13.8701,9.7944l2.7998-9.7231L33.541,55.291l-1.6958,6.021,2.4868-.0097-2.5039,8.8183L25.542,55.3223H16.5361L14.8462,61.314h2.4697L11.7353,81.6402h7.2002s2.77-10.07231,3.4844-12.6661c1.0142,2.4512,5.2402,12.6661,5.2402,12.6661l8.01319-.002L39.33979,68.73a17.85681,17.85681,0,0,0-.0044,5.92189c.70661,4.23041,4.8213,6.98831,9.3135,6.98831h14.5425l2.4975-3.78031h10.2588l.208,3.74121h9.0957l2.3155-3.74121H98.06l.41019,3.78031h6.4394l1.42-2.8829Z" style="fill: #fff"/>
    <g>
      <path d="M69.82369,71.5708l5.5752-8.4638.2979,8.4638ZM92.145,71.4575l5.56929-8.4335.2793,8.4335Z" style="fill: #009CDE"/>
      <path d="M98.47019,81.6402,98.06,77.85989H87.56689l-2.3155,3.74121h-9.0957l-.208-3.74121H65.68889l-2.4975,3.78031H48.64889c-4.4922,0-8.60689-2.7579-9.3135-6.98831a17.85681,17.85681,0,0,1,.0044-5.92189l-3.6665,12.9082-8.01319.002s-4.226-10.2149-5.2402-12.6661c-.7144,2.59379-3.4844,12.6661-3.4844,12.6661H11.7353L17.3159,61.314H14.8462l1.6899-5.9917H25.542l6.2861,14.7983,2.5039-8.8183-2.4868.0097,1.6958-6.021,9.60789.0313-2.7998,9.7231a15.11847,15.11847,0,0,1,13.8701-9.7944l10.8057.04-2.521,9.1558h-7.0137s.5635-2.0195.832-2.9902l-1.5986-.0371c-3.8154,0-7.5693,5.7226-7.5693,9.6699a4.33709,4.33709,0,0,0,4.0073,4.7051l7.87741.0312L68.605,61.312l-2.23441-.0273,1.664-5.9937h14.6485l.999,17.3277L90.811,61.312H88.57179l1.705-6.021h14.4395l1.6133,23.4663a55.76625,55.76625,0,1,0-1.42,2.8829Z" style="fill: #009CDE"/>
    </g>
  </g>
  <g>
    <path d="M123.50139,55.8936h8.6949c7.5678.1758,11.5449,4.3296,11.5449,12.5664s-3.9771,12.3906-11.5449,12.5664h-8.6949Zm2.3941,23.09129h5.104c7.2158.03511,10.3486-3.02739,10.3486-10.52489s-3.1328-10.56011-10.3486-10.5249h-5.104Z"/>
    <path d="M147.08489,55.8936h2.2188v3.5552h-2.2188Zm0,6.9697h2.2188V81.0264h-2.2188Z"/>
    <path d="M151.37989,62.8633h2.4638l5.7022,15.9453h.0703L165.249,62.8633h2.28709l-6.793,18.1631h-2.3584Z"/>
    <path d="M169.61329,55.8936H171.831v3.5552h-2.21771Zm0,6.9697H171.831V81.0264h-2.21771Z"/>
    <path d="M186.82609,68.1782c-.1054-2.7456-2.2177-3.9775-4.7519-3.9775-1.9717,0-4.2939.7744-4.2939,3.1328,0,1.9712,2.2519,2.6753,3.7656,3.0625l2.957.669c2.5352.3872,5.1738,1.8652,5.1738,5.0332,0,3.9424-3.9062,5.456-7.2851,5.456-4.22459,0-7.1113-1.9712-7.4629-6.4062h2.2168c.1767,2.9922,2.39451,4.541,5.35151,4.541,2.07619,0,4.96289-.9155,4.96289-3.4497,0-2.1123-1.9707-2.8159-3.9775-3.3091l-2.8516-.63331c-2.8857-.77439-5.0693-1.76029-5.0693-4.85789,0-3.6958,3.627-5.104,6.8301-5.104,3.625,0,6.5117,1.90089,6.6523,5.8432Z"/>
    <path d="M192.77439,55.8936h2.2178v3.5552h-2.2178Zm0,6.9697h2.2178V81.0264h-2.2178Z"/>
    <path d="M215.373,71.9448c0,5.2095-3.02731,9.6094-8.58881,9.6094s-8.5889-4.3999-8.5889-9.6094c0-5.20991,3.0273-9.6098,8.5889-9.6098S215.373,66.73489,215.373,71.9448Zm-14.95991,0c0,3.87209,2.1113,7.7442,6.3711,7.7442s6.3711-3.87211,6.3711-7.7442-2.1114-7.7441-6.3711-7.7441S200.41309,68.0728,200.41309,71.9448Z"/>
    <path d="M218.50489,62.8633h2.2187v3.1328h.0703a6.15651,6.15651,0,0,1,5.8067-3.6611c5.10541,0,6.6543,2.6753,6.6543,7.00489V81.0264h-2.2188V69.69189c0-3.13279-1.0195-5.49119-4.6113-5.49119-3.5195,0-5.6309,2.6753-5.7012,6.2305V81.0264h-2.2187Z"/>
    <path d="M247.122,55.8936h2.21879V81.0264H247.122Z"/>
    <path d="M253.63569,55.8936h2.2168V81.0264h-2.2168Z"/>
  </g>
</svg>